<svg width="10" height="10" viewBox="0 0 10 10" fill="none" xmlns="http://www.w3.org/2000/svg">
<path d="M5.00047 0C3.64254 0 3.47212 0.00593766 2.93878 0.0302087C2.40648 0.054584 2.04315 0.138856 1.72523 0.262503C1.39637 0.390212 1.11741 0.561048 0.839488 0.839071C0.56136 1.11699 0.390525 1.39595 0.262398 1.72471C0.138439 2.04273 0.054063 2.40617 0.0301044 2.93826C0.00625002 3.4716 0 3.64212 0 5.00005C0 6.35798 0.00604183 6.52788 0.0302087 7.06122C0.0546882 7.59352 0.13896 7.95685 0.262503 8.27477C0.390317 8.60363 0.561152 8.88259 0.839175 9.16051C1.11699 9.43864 1.39595 9.60989 1.7246 9.7376C2.04273 9.86125 2.40617 9.94552 2.93836 9.9699C3.4717 9.99417 3.64202 10.0001 4.99984 10.0001C6.35788 10.0001 6.52778 9.99417 7.06112 9.9699C7.59341 9.94552 7.95717 9.86125 8.27529 9.7376C8.60405 9.60989 8.88259 9.43864 9.16041 9.16051C9.43854 8.88259 9.60937 8.60363 9.7375 8.27488C9.86041 7.95685 9.94479 7.59341 9.96979 7.06132C9.99375 6.52798 10 6.35798 10 5.00005C10 3.64212 9.99375 3.4717 9.96979 2.93836C9.94479 2.40607 9.86041 2.04273 9.7375 1.72481C9.60937 1.39595 9.43854 1.11699 9.16041 0.839071C8.88228 0.560943 8.60415 0.390108 8.27498 0.262503C7.95623 0.138856 7.59268 0.054584 7.06039 0.0302087C6.52705 0.00593766 6.35725 0 4.99891 0H5.00047ZM4.55192 0.901051C4.68505 0.900843 4.83359 0.901051 5.00047 0.901051C6.33548 0.901051 6.49371 0.905843 7.02091 0.929801C7.50841 0.952093 7.773 1.03355 7.94925 1.10199C8.18258 1.19262 8.34894 1.30095 8.52384 1.47595C8.69884 1.65095 8.80717 1.81762 8.89801 2.05096C8.96645 2.227 9.04801 2.49159 9.0702 2.97909C9.09416 3.50618 9.09937 3.66452 9.09937 4.99891C9.09937 6.3333 9.09416 6.49163 9.0702 7.01872C9.04791 7.50622 8.96645 7.77081 8.89801 7.94685C8.80738 8.18019 8.69884 8.34634 8.52384 8.52123C8.34884 8.69624 8.18269 8.80457 7.94925 8.8952C7.77321 8.96395 7.50841 9.0452 7.02091 9.06749C6.49382 9.09145 6.33548 9.09666 5.00047 9.09666C3.66535 9.09666 3.50712 9.09145 2.98003 9.06749C2.49253 9.04499 2.22794 8.96353 2.05158 8.89509C1.81825 8.80447 1.65158 8.69613 1.47658 8.52113C1.30158 8.34613 1.19324 8.17988 1.10241 7.94644C1.03397 7.77039 0.952406 7.50581 0.930218 7.0183C0.906259 6.49121 0.901468 6.33288 0.901468 4.99766C0.901468 3.66243 0.906259 3.50493 0.930218 2.97784C0.95251 2.49034 1.03397 2.22575 1.10241 2.0495C1.19303 1.81616 1.30158 1.6495 1.47658 1.47449C1.65158 1.29949 1.81825 1.19116 2.05158 1.10032C2.22784 1.03157 2.49253 0.950323 2.98003 0.927926C3.44129 0.907093 3.62004 0.900843 4.55192 0.899801V0.901051ZM7.66945 1.73127C7.3382 1.73127 7.06945 1.99971 7.06945 2.33107C7.06945 2.66232 7.3382 2.93107 7.66945 2.93107C8.00071 2.93107 8.26946 2.66232 8.26946 2.33107C8.26946 1.99981 8.00071 1.73106 7.66945 1.73106V1.73127ZM5.00047 2.43232C3.58243 2.43232 2.43273 3.58202 2.43273 5.00005C2.43273 6.41809 3.58243 7.56727 5.00047 7.56727C6.4185 7.56727 7.56779 6.41809 7.56779 5.00005C7.56779 3.58202 6.4184 2.43232 5.00036 2.43232H5.00047ZM5.00047 3.33337C5.92089 3.33337 6.66715 4.07952 6.66715 5.00005C6.66715 5.92048 5.92089 6.66674 5.00047 6.66674C4.07994 6.66674 3.33378 5.92048 3.33378 5.00005C3.33378 4.07952 4.07994 3.33337 5.00047 3.33337V3.33337Z" fill="white"/>
</svg>
