<svg width="72" height="30" viewBox="0 0 72 30" fill="none" xmlns="http://www.w3.org/2000/svg">
<path d="M20.1309 8.885C20.1309 11.315 21.2409 12.41 22.9959 12.92V14.735C21.3459 14.435 19.9059 13.64 19.1109 12.59C18.3609 13.685 16.9209 14.555 15.1959 14.885V13.085C17.0109 12.53 18.0759 11.21 18.0759 8.885V7.28H20.1309V8.885ZM26.6559 10.16H28.5609V11.96H26.6559V15.065H24.6009V7.205H26.6559V10.16ZM16.2609 18.26C16.2609 17.375 16.6359 16.715 17.2659 16.25C18.2559 15.515 19.8609 15.245 21.6159 15.245C23.3709 15.245 24.9759 15.515 25.9659 16.25C26.5959 16.715 26.9709 17.375 26.9709 18.26C26.9709 19.145 26.5959 19.805 25.9659 20.27C24.9759 21.005 23.3709 21.275 21.6159 21.275C19.8609 21.275 18.2559 21.005 17.2659 20.27C16.6359 19.805 16.2609 19.145 16.2609 18.26ZM18.3159 18.26C18.3159 18.59 18.4659 18.845 18.7659 19.04C19.3209 19.4 20.3559 19.52 21.6159 19.52C22.8909 19.52 23.9109 19.4 24.4809 19.04C24.7659 18.845 24.9159 18.59 24.9159 18.26C24.9159 17.945 24.7659 17.69 24.4809 17.495C23.9109 17.12 22.8909 17.015 21.6159 17.015C20.3559 17.015 19.3209 17.12 18.7659 17.495C18.4659 17.69 18.3159 17.945 18.3159 18.26ZM30.0753 10.835C30.0753 9.56 30.4953 8.585 31.2303 7.94C31.8453 7.415 32.6853 7.13 33.6903 7.13C34.6953 7.13 35.5353 7.415 36.1503 7.94C36.3153 8.09 36.4653 8.255 36.6003 8.435H39.3603V7.205H41.4153V15.23H39.3603V13.235H36.6003C36.4653 13.415 36.3153 13.58 36.1503 13.715C35.5353 14.255 34.6953 14.54 33.6903 14.54C32.6853 14.54 31.8453 14.255 31.2303 13.715C30.4953 13.085 30.0753 12.095 30.0753 10.835ZM37.2603 10.175C37.2903 10.385 37.3053 10.61 37.3053 10.835C37.3053 11.075 37.2903 11.3 37.2603 11.51H39.3603V10.175H37.2603ZM32.0853 10.835C32.0853 11.51 32.2653 12.02 32.5953 12.35C32.8653 12.635 33.2403 12.77 33.6903 12.77C34.1403 12.77 34.5003 12.635 34.7853 12.35C35.1153 12.02 35.2953 11.51 35.2953 10.835C35.2953 10.16 35.1153 9.65 34.7853 9.305C34.5003 9.035 34.1403 8.885 33.6903 8.885C33.2403 8.885 32.8653 9.035 32.5953 9.305C32.2653 9.65 32.0853 10.16 32.0853 10.835ZM30.8853 18.26C30.8853 17.27 31.3953 16.565 32.1603 16.1C33.2403 15.44 34.8303 15.245 36.3003 15.245C37.7853 15.245 39.3753 15.44 40.4403 16.1C41.2203 16.565 41.7303 17.27 41.7303 18.26C41.7303 19.25 41.2203 19.97 40.4403 20.435C39.3753 21.08 37.7853 21.275 36.3003 21.275C34.8303 21.275 33.2403 21.08 32.1603 20.435C31.3953 19.97 30.8853 19.25 30.8853 18.26ZM32.9403 18.26C32.9403 18.605 33.1203 18.845 33.4503 19.04C34.0953 19.4 35.2353 19.52 36.3003 19.52C37.3803 19.52 38.5203 19.4 39.1653 19.04C39.4803 18.845 39.6753 18.605 39.6753 18.26C39.6753 17.93 39.4803 17.69 39.1653 17.495C38.5203 17.12 37.3803 17.015 36.3003 17.015C35.2353 17.015 34.0953 17.12 33.4503 17.495C33.1203 17.69 32.9403 17.93 32.9403 18.26ZM45.0747 7.37H55.7247V9.095H51.4947C51.9147 10.19 53.8197 10.775 55.8747 10.925V12.65C53.6397 12.515 51.5997 11.9 50.3847 10.805C49.1697 11.9 47.1297 12.515 44.8947 12.65V10.925C46.9197 10.805 48.8397 10.19 49.2597 9.095H45.0747V7.37ZM51.4047 15.035V15.92C52.8447 15.98 54.0147 16.205 54.8097 16.64C55.5897 17.075 55.9947 17.705 55.9947 18.635C55.9947 19.565 55.5897 20.195 54.8097 20.615C53.8347 21.17 52.3047 21.365 50.4147 21.365C48.5247 21.365 46.9947 21.17 46.0197 20.615C45.2547 20.195 44.8347 19.565 44.8347 18.635C44.8347 17.705 45.2547 17.075 46.0197 16.64C46.8147 16.205 47.9697 15.995 49.3797 15.92V15.035H44.2047V13.28H56.5947V15.035H51.4047ZM46.8897 18.635C46.8897 18.905 47.0247 19.115 47.2947 19.25C47.8497 19.55 48.8847 19.625 50.4147 19.625C51.9447 19.625 52.9797 19.55 53.5347 19.25C53.8047 19.115 53.9397 18.905 53.9397 18.635C53.9397 18.365 53.8047 18.155 53.5347 18.005C52.9797 17.72 51.9447 17.63 50.4147 17.63C48.8847 17.63 47.8497 17.72 47.2947 18.005C47.0247 18.155 46.8897 18.365 46.8897 18.635Z" fill="#AE2622"/>
<rect x="0.5" y="1.5" width="71" height="27" rx="13.5" stroke="#AE2622"/>
</svg>
