<svg width="72" height="30" viewBox="0 0 72 30" fill="none" xmlns="http://www.w3.org/2000/svg">
<path d="M20.6559 12.125V7.445H22.6959V20.06H15.9159V7.445H17.9559V12.125H20.6559ZM20.6559 13.91H17.9559V18.275H20.6559V13.91ZM27.0009 20.975H24.9459V7.205H27.0009V20.975ZM34.5303 8.885C34.5303 11.315 35.6403 12.41 37.3953 12.92V14.735C35.7453 14.435 34.3053 13.64 33.5103 12.59C32.7603 13.685 31.3203 14.555 29.5953 14.885V13.085C31.4103 12.53 32.4753 11.21 32.4753 8.885V7.28H34.5303V8.885ZM41.0553 10.16H42.9603V11.96H41.0553V15.065H39.0003V7.205H41.0553V10.16ZM30.6603 18.26C30.6603 17.375 31.0353 16.715 31.6653 16.25C32.6553 15.515 34.2603 15.245 36.0153 15.245C37.7703 15.245 39.3753 15.515 40.3653 16.25C40.9953 16.715 41.3703 17.375 41.3703 18.26C41.3703 19.145 40.9953 19.805 40.3653 20.27C39.3753 21.005 37.7703 21.275 36.0153 21.275C34.2603 21.275 32.6553 21.005 31.6653 20.27C31.0353 19.805 30.6603 19.145 30.6603 18.26ZM32.7153 18.26C32.7153 18.59 32.8653 18.845 33.1653 19.04C33.7203 19.4 34.7553 19.52 36.0153 19.52C37.2903 19.52 38.3103 19.4 38.8803 19.04C39.1653 18.845 39.3153 18.59 39.3153 18.26C39.3153 17.945 39.1653 17.69 38.8803 17.495C38.3103 17.12 37.2903 17.015 36.0153 17.015C34.7553 17.015 33.7203 17.12 33.1653 17.495C32.8653 17.69 32.7153 17.945 32.7153 18.26ZM44.4747 10.835C44.4747 9.56 44.8947 8.585 45.6297 7.94C46.2447 7.415 47.0847 7.13 48.0897 7.13C49.0947 7.13 49.9347 7.415 50.5497 7.94C50.7147 8.09 50.8647 8.255 50.9997 8.435H53.7597V7.205H55.8147V15.23H53.7597V13.235H50.9997C50.8647 13.415 50.7147 13.58 50.5497 13.715C49.9347 14.255 49.0947 14.54 48.0897 14.54C47.0847 14.54 46.2447 14.255 45.6297 13.715C44.8947 13.085 44.4747 12.095 44.4747 10.835ZM51.6597 10.175C51.6897 10.385 51.7047 10.61 51.7047 10.835C51.7047 11.075 51.6897 11.3 51.6597 11.51H53.7597V10.175H51.6597ZM46.4847 10.835C46.4847 11.51 46.6647 12.02 46.9947 12.35C47.2647 12.635 47.6397 12.77 48.0897 12.77C48.5397 12.77 48.8997 12.635 49.1847 12.35C49.5147 12.02 49.6947 11.51 49.6947 10.835C49.6947 10.16 49.5147 9.65 49.1847 9.305C48.8997 9.035 48.5397 8.885 48.0897 8.885C47.6397 8.885 47.2647 9.035 46.9947 9.305C46.6647 9.65 46.4847 10.16 46.4847 10.835ZM45.2847 18.26C45.2847 17.27 45.7947 16.565 46.5597 16.1C47.6397 15.44 49.2297 15.245 50.6997 15.245C52.1847 15.245 53.7747 15.44 54.8397 16.1C55.6197 16.565 56.1297 17.27 56.1297 18.26C56.1297 19.25 55.6197 19.97 54.8397 20.435C53.7747 21.08 52.1847 21.275 50.6997 21.275C49.2297 21.275 47.6397 21.08 46.5597 20.435C45.7947 19.97 45.2847 19.25 45.2847 18.26ZM47.3397 18.26C47.3397 18.605 47.5197 18.845 47.8497 19.04C48.4947 19.4 49.6347 19.52 50.6997 19.52C51.7797 19.52 52.9197 19.4 53.5647 19.04C53.8797 18.845 54.0747 18.605 54.0747 18.26C54.0747 17.93 53.8797 17.69 53.5647 17.495C52.9197 17.12 51.7797 17.015 50.6997 17.015C49.6347 17.015 48.4947 17.12 47.8497 17.495C47.5197 17.69 47.3397 17.93 47.3397 18.26Z" fill="white"/>
<rect x="0.5" y="1.5" width="71" height="27" rx="13.5" stroke="white"/>
</svg>
